<svg width="24" height="24" viewBox="0 0 24 24" fill="none" xmlns="http://www.w3.org/2000/svg">
<g clip-path="url(#clip0_257_2995)">
<path d="M11.9804 3C16.951 3 20.9804 7.02944 20.9804 12C20.9804 14.6655 19.8217 17.0604 17.9804 18.7083C17.5671 19.0783 17.1193 19.4106 16.6425 19.6999M5.98044 18.7083C5.80763 18.5537 5.64084 18.3924 5.48044 18.225C4.79532 17.5098 4.22707 16.6817 3.80639 15.7715L3.56569 15.1993C3.33644 14.5967 3.17007 13.9631 3.07459 13.3065M7.00375 4.5C6.33964 4.94156 5.73754 5.46897 5.21329 6.06639M7.71 19.9243C8.98063 20.6105 10.4351 21 11.9804 21C12.955 21 13.8933 20.8451 14.7722 20.5586M3 11.4019C3.08573 10.0952 3.45036 8.86457 4.03493 7.76906" stroke="#959595" stroke-width="1.5" stroke-linecap="round" stroke-linejoin="round"/>
</g>
<defs>
<clipPath id="clip0_257_2995">
<rect width="24" height="24" fill="white"/>
</clipPath>
</defs>
</svg>
