<svg width="24" height="24" viewBox="0 0 24 24" fill="none" xmlns="http://www.w3.org/2000/svg">
<g clip-path="url(#clip0_257_2989)">
<path d="M17.983 18.4055V18.6075C17.9837 18.9538 17.9162 19.2968 17.7844 19.6171C17.6525 19.9373 17.4589 20.2284 17.2145 20.4738C16.9702 20.7191 16.6799 20.914 16.3602 21.0472C16.0406 21.1804 15.6978 21.2493 15.3515 21.25H5.73101C5.38471 21.2507 5.04166 21.1832 4.72145 21.0514C4.40124 20.9195 4.11013 20.7259 3.86475 20.4815C3.61938 20.2372 3.42453 19.9469 3.29134 19.6272C3.15815 19.3076 3.08923 18.9648 3.08851 18.6185V8.5575C3.08772 8.21121 3.15515 7.86815 3.28694 7.54791C3.41873 7.22767 3.61231 6.93653 3.85662 6.6911C4.10093 6.44568 4.39119 6.25078 4.71083 6.11753C5.03046 5.98428 5.37321 5.91529 5.71951 5.91451H5.96301M11.8355 18.405H18.7495C19.0328 18.4056 19.3135 18.3504 19.5755 18.2425C19.8375 18.1346 20.0756 17.9762 20.2764 17.7763C20.4772 17.5763 20.6366 17.3388 20.7456 17.0773C20.8545 16.8158 20.9109 16.5353 20.9115 16.252V4.912C20.9121 4.62868 20.8569 4.34801 20.749 4.08602C20.6411 3.82404 20.4827 3.58586 20.2828 3.3851C20.0828 3.18434 19.8453 3.02493 19.5838 2.91596C19.3223 2.80699 19.0418 2.7506 18.7585 2.75H8.12451C7.84118 2.74941 7.56051 2.80463 7.29852 2.91251C7.03654 3.02039 6.79837 3.17881 6.59761 3.37874C6.39685 3.57866 6.23743 3.81617 6.12846 4.07771C6.01949 4.33924 5.9631 4.61968 5.96251 4.903V12.098L11.8355 18.405Z" stroke="#959595" stroke-width="1.5" stroke-linecap="round" stroke-linejoin="round"/>
</g>
<defs>
<clipPath id="clip0_257_2989">
<rect width="24" height="24" fill="white"/>
</clipPath>
</defs>
</svg>
